<svg viewBox="-79 0 512 512.00101" xmlns="http://www.w3.org/2000/svg"><path d="m346.746094 334.878906c0-93.679687-169.621094-322.292968-169.621094-322.292968s-169.625 228.613281-169.625 322.292968c0 93.679688 75.941406 169.621094 169.621094 169.621094 93.679687 0 169.625-75.941406 169.625-169.621094zm0 0" fill="#ff7956"/><path d="m241.949219 419.734375v-60.539063h60.539062v-69.652343h-60.539062v-60.542969h-69.652344v60.542969h-60.539063v69.652343h60.539063v60.539063zm0 0" fill="#ff3f62"/><path d="m211.949219 419.734375v-60.539063h60.539062v-69.652343h-60.539062v-60.542969h-69.652344v60.542969h-60.539063v69.652343h60.539063v60.539063zm0 0" fill="#fff"/><path d="m37.5 334.878906c0-76.515625 113.152344-243.039062 154.621094-301.5-9.300782-13.113281-15-20.792968-15-20.792968s-169.621094 228.613281-169.621094 322.292968c0 93.679688 75.941406 169.621094 169.621094 169.621094 5.054687 0 10.058594-.222656 15-.65625-86.652344-7.589844-154.621094-80.339844-154.621094-168.964844zm0 0" fill="#ff3f62"/><path d="m142.296875 229h30v60.539062h-30zm0 0" fill="#e0e0e2"/><path d="m142.296875 359.195312h30v60.539063h-30zm0 0" fill="#e0e0e2"/><path d="m81.757812 289.542969h30v69.652343h-30zm0 0" fill="#e0e0e2"/><path d="m219.449219 366.695312h60.539062v-84.65625h-60.539062v-60.539062h-84.652344v60.539062h-60.539063v84.65625h60.539063v60.539063h84.652344zm-15 45.539063h-54.652344v-60.539063h-60.539063v-54.65625h60.539063v-60.539062h54.652344v60.539062h60.539062v54.65625h-60.539062zm0 0"/><path d="m183.144531 8.117188-6.019531-8.117188-6.023438 8.117188c-6.988281 9.417968-171.101562 231.695312-171.101562 326.761718 0 97.664063 79.457031 177.121094 177.125 177.121094 97.664062 0 177.121094-79.457031 177.121094-177.121094 0-95.066406-164.113282-317.34375-171.101563-326.761718zm-6.019531 488.882812c-89.394531 0-162.125-72.726562-162.125-162.121094 0-80.289062 132.0625-267.894531 162.125-309.554687 30.058594 41.660156 162.121094 229.269531 162.121094 309.554687 0 89.394532-72.726563 162.121094-162.121094 162.121094zm0 0"/><g fill="#fff"><path d="m302.515625 286.566406 14.03125-5.300781c-1.714844-4.546875-3.625-9.316406-5.679687-14.183594l-13.820313 5.824219c1.980469 4.695312 3.820313 9.292969 5.46875 13.660156zm0 0"/><path d="m320.015625 290.894531-14.195313 4.851563c6.964844 20.382812 8.425782 32.53125 8.425782 39.132812 0 75.609375-61.515625 137.121094-137.125 137.121094v15c83.882812 0 152.125-68.242188 152.125-152.121094 0-11.253906-3.105469-26.050781-9.230469-43.984375zm0 0"/><path d="m306.824219 257.769531c-1.984375-4.453125-4.128907-9.09375-6.375-13.789062l-13.535157 6.464843c2.191407 4.578126 4.277344 9.097657 6.210938 13.433594zm0 0"/></g><path d="m107.210938 147.777344c-67.949219 110.34375-82.210938 162.652344-82.210938 187.101562h15c0-14.835937 7.792969-62.003906 79.984375-179.234375zm0 0"/><path d="m179.449219 249h15v47.75h-15zm0 0"/></svg>