<?xml version="1.0" encoding="iso-8859-1"?>
<!-- Generator: Adobe Illustrator 18.1.1, SVG Export Plug-In . SVG Version: 6.00 Build 0)  -->
<svg version="1.1" id="Capa_1" xmlns="http://www.w3.org/2000/svg" xmlns:xlink="http://www.w3.org/1999/xlink" x="0px" y="0px"
	 viewBox="0 0 611.999 611.999" style="enable-background:new 0 0 611.999 611.999;" xml:space="preserve">
<g>
	<g>
		<path d="M346.437,187.855C346.437,68.055,277.819,0,176.58,0S6.724,67.493,6.724,187.855
			c0,120.361,68.617,191.229,169.857,191.229S346.437,308.217,346.437,187.855z M105.713,187.855
			c0-66.368,26.997-104.614,70.867-104.614s70.868,38.247,70.868,104.614c0,66.367-26.998,107.988-70.868,107.988
			S105.713,254.222,105.713,187.855z"/>
		<path d="M605.276,552.008v-0.034c0-11.584-9.381-20.98-20.965-20.999l-93.687-0.154c48.37-49.495,97.778-107.801,97.778-165.17
			c0-70.867-50.619-116.988-122.612-116.988c-45.414,0-76.718,13.28-108.17,41.977c-8.824,8.052-9.088,21.87-0.642,30.317
			l22.351,22.351c7.838,7.838,20.39,8.199,28.733,0.902c12.93-11.309,27.1-20.18,44.229-20.18c25.872,0,43.87,15.186,43.87,47.245
			c0,47.065-61.771,104.781-142.825,179.364c-4.322,3.977-6.783,9.583-6.783,15.456V591c0,11.598,9.401,20.999,20.999,20.999
			h216.725c11.597,0,20.999-9.401,20.999-20.999V552.008z"/>
	</g>
</g>
<g>
</g>
<g>
</g>
<g>
</g>
<g>
</g>
<g>
</g>
<g>
</g>
<g>
</g>
<g>
</g>
<g>
</g>
<g>
</g>
<g>
</g>
<g>
</g>
<g>
</g>
<g>
</g>
<g>
</g>
</svg>
